<?xml version="1.0" standalone="no"?>
<!DOCTYPE svg PUBLIC "-//W3C//DTD SVG 20010904//EN"
 "http://www.w3.org/TR/2001/REC-SVG-20010904/DTD/svg10.dtd">
<svg version="1.0" xmlns="http://www.w3.org/2000/svg"
 width="195.000000pt" height="195.000000pt" viewBox="0 0 195.000000 195.000000"
 preserveAspectRatio="xMidYMid meet">

<g transform="translate(0.000000,195.000000) scale(0.100000,-0.100000)"
fill="#000000" stroke="none">
<path d="M538 1937 c-5 -10 -8 -30 -8 -43 0 -33 -18 -30 -23 4 l-4 27 -8 -32
c-8 -36 -25 -45 -25 -13 0 11 -4 20 -10 20 -5 0 -10 -13 -10 -30 0 -37 -13
-39 -30 -2 -7 15 -15 22 -17 15 -2 -7 1 -22 7 -33 15 -27 5 -38 -20 -22 -29
18 -35 15 -16 -7 22 -24 12 -44 -17 -35 -21 6 -21 6 -4 -13 25 -28 21 -43 -10
-44 l-28 -1 28 -10 c34 -12 36 -38 2 -38 -34 0 -32 -18 2 -22 34 -4 46 -38 13
-38 -12 0 -18 -4 -15 -10 3 -5 19 -10 35 -10 16 0 32 -4 35 -10 3 -5 0 -10 -8
-10 -15 0 -47 -31 -47 -45 0 -5 12 2 26 16 l27 24 -13 -25 c-7 -14 -42 -61
-77 -105 -148 -186 -215 -411 -192 -643 32 -314 225 -581 506 -698 37 -15 82
-38 98 -51 87 -64 303 -69 395 -9 19 13 53 29 75 36 118 38 249 124 345 227
150 160 222 355 221 593 0 101 -4 141 -27 250 -5 21 0 28 28 42 l33 17 -41 0
c-22 1 -44 4 -48 8 -4 4 12 25 36 45 l43 37 -42 1 c-23 0 -44 4 -48 10 -3 5
17 26 45 47 l51 38 -52 3 -52 3 53 54 53 54 -54 -6 c-60 -6 -142 14 -187 45
-15 10 -60 29 -100 42 -65 20 -75 27 -92 60 -28 56 -94 110 -133 110 -17 0
-57 7 -87 15 -101 27 -224 36 -318 24 -135 -19 -147 -18 -146 8 0 17 -5 22
-20 20 -17 -2 -21 3 -19 27 2 27 1 28 -17 11 -28 -25 -53 -13 -40 20 13 35 -7
33 -22 -2 -12 -27 -12 -27 -18 22 -3 35 -7 45 -12 32z m565 -163 c48 -9 87
-19 87 -23 0 -11 -45 -34 -200 -104 -128 -58 -417 -215 -459 -250 -28 -23
-170 -91 -177 -84 -11 11 25 159 52 215 23 48 29 53 51 47 20 -5 44 10 131 76
59 45 114 90 122 100 8 10 33 23 55 28 65 15 243 12 338 -5z m-285 -541 c151
-123 222 -152 372 -153 l105 0 24 -50 c13 -28 38 -62 54 -76 19 -16 26 -29 20
-35 -15 -15 -40 -1 -61 35 -35 59 -86 90 -157 94 -88 6 -149 -29 -190 -109
-24 -46 -42 -40 -88 31 -30 46 -91 80 -144 80 l-43 0 0 103 c0 145 15 156 108
80z m-144 -154 l17 -27 -47 -26 c-26 -14 -47 -26 -48 -26 0 0 0 41 2 90 l3 91
28 -38 c15 -21 35 -50 45 -64z m-125 -54 l33 -46 -18 -37 c-19 -41 -30 -52
-56 -52 -22 0 -23 16 -2 38 13 12 15 29 11 79 -2 35 -4 63 -3 63 2 0 17 -20
35 -45z m270 -42 c47 -36 66 -71 66 -123 0 -75 -55 -137 -132 -147 -103 -14
-190 96 -152 194 34 90 146 129 218 76z m401 11 c131 -52 112 -254 -26 -280
-101 -19 -192 70 -177 173 7 42 57 101 96 112 47 13 62 13 107 -5z m-779 -85
c24 -12 32 -31 70 -173 33 -120 35 -179 7 -184 -15 -3 -18 4 -19 45 -1 57 -60
275 -74 273 -5 0 -9 -10 -7 -20 4 -22 -17 -27 -36 -8 -25 25 -8 78 26 78 7 0
22 -5 33 -11z m1078 -17 c7 -12 6 -26 -2 -43 -16 -31 -43 -32 -40 -1 5 44 -17
21 -33 -35 -9 -32 -22 -80 -30 -107 -8 -27 -14 -70 -14 -95 0 -25 -5 -53 -10
-61 -8 -13 -11 -13 -27 2 -15 16 -16 24 -4 79 19 93 60 231 77 257 18 28 69
30 83 4z m-545 -74 c10 -51 52 -105 98 -129 50 -26 131 -28 175 -5 44 22 91
80 103 126 6 22 15 40 21 40 6 0 8 -8 5 -17 -3 -10 -19 -79 -36 -153 -55 -238
-111 -453 -132 -512 -25 -70 -88 -133 -142 -143 -71 -14 -248 -1 -297 22 -60
27 -77 64 -123 263 -20 85 -58 237 -84 337 -38 143 -45 183 -35 187 12 5 33
-29 33 -55 0 -5 16 -27 36 -49 69 -76 179 -86 262 -23 35 26 72 90 72 123 0
35 36 25 44 -12z"/>
<path d="M550 1575 c1 -26 2 -28 11 -12 8 14 8 22 0 30 -8 8 -11 3 -11 -18z"/>
<path d="M507 1538 c-9 -55 -24 -63 -30 -15 -4 31 -4 31 -5 -5 -2 -27 -7 -38
-17 -38 -11 0 -14 7 -9 25 4 15 2 25 -5 25 -6 0 -11 -13 -11 -29 0 -21 -5 -28
-16 -27 -23 2 -29 -20 -8 -28 9 -4 34 3 56 14 21 11 45 20 53 20 8 0 18 6 22
13 4 7 19 18 33 25 18 9 20 11 5 8 -11 -2 -28 -7 -37 -11 -14 -5 -17 0 -20 32
l-3 38 -8 -47z"/>
<path d="M714 876 c-10 -26 4 -48 28 -44 17 2 23 10 23 28 0 18 -6 26 -23 28
-13 2 -25 -3 -28 -12z"/>
<path d="M1141 877 c-17 -21 -3 -49 23 -45 15 2 21 10 21 28 0 28 -26 38 -44
17z"/>
<path d="M1005 620 c-35 -23 -93 -26 -121 -5 -24 18 -44 19 -44 1 0 -17 69
-46 109 -46 29 0 92 36 99 58 5 17 -8 15 -43 -8z"/>
<path d="M1165 601 c-3 -6 -3 -16 0 -22 11 -16 -21 -45 -78 -70 -73 -33 -195
-32 -294 1 -54 18 -73 29 -73 41 0 32 -18 29 -39 -7 -27 -45 -26 -48 5 -40 16
4 46 -1 80 -13 136 -51 268 -47 367 13 41 25 57 30 70 22 28 -18 29 0 2 40
-33 48 -32 47 -40 35z"/>
<path d="M865 247 c22 -18 101 -22 125 -7 11 7 5 10 -25 10 -22 0 -58 3 -80 6
-38 6 -39 6 -20 -9z"/>
<path d="M1025 250 c-3 -5 -2 -10 4 -10 5 0 13 5 16 10 3 6 2 10 -4 10 -5 0
-13 -4 -16 -10z"/>
</g>
</svg>

